<?xml version="1.0" encoding="utf-8"?>
<!-- Generator: Adobe Illustrator 16.0.0, SVG Export Plug-In . SVG Version: 6.00 Build 0)  -->
<!DOCTYPE svg PUBLIC "-//W3C//DTD SVG 1.1//EN" "http://www.w3.org/Graphics/SVG/1.1/DTD/svg11.dtd">
<svg version="1.1" id="레이어_1" xmlns="http://www.w3.org/2000/svg" xmlns:xlink="http://www.w3.org/1999/xlink" x="0px"
	 y="0px" width="40px" height="40px" viewBox="0 0 40 40" enable-background="new 0 0 40 40" xml:space="preserve">
<g>
	<path fill="#1428a0" d="M20,0C8.954,0,0,8.954,0,20c0,11.047,8.954,20,20,20c11.047,0,20-8.953,20-20C40,8.954,31.047,0,20,0z
		 M17.607,31.045c-5.448,0-11.015-2.955-11.015-7.376c0-2.31,1.438-4.981,3.914-7.502c3.31-3.365,7.166-4.9,8.616-3.424
		c0.639,0.651,0.701,1.778,0.288,3.122c-0.212,0.679,0.626,0.305,0.626,0.307c2.674-1.142,5.005-1.208,5.859,0.033
		c0.453,0.66,0.409,1.585-0.011,2.661c-0.195,0.495,0.062,0.571,0.431,0.683c1.505,0.476,3.182,1.626,3.182,3.652
		C29.498,26.553,24.749,31.045,17.607,31.045z M28.925,16.926c-0.512,0.104-1.01-0.223-1.114-0.734
		c-0.279-1.368-1.356-2.446-2.727-2.726c-0.51-0.106-0.838-0.605-0.733-1.113c0.104-0.509,0.604-0.837,1.113-0.734
		c2.104,0.431,3.764,2.09,4.194,4.195C29.763,16.322,29.433,16.822,28.925,16.926z M33,15.956c0,0.52-0.219,0.943-0.74,0.943
		s-0.84-0.423-0.84-0.943c0-3.425-2.726-6.2-6.148-6.2c-0.521,0-0.917-0.421-0.917-0.941c0-0.522,0.23-0.942,0.751-0.942
		c4.464,0,7.895,3.618,7.895,8.08C33,15.952,33,15.956,33,15.956z"/>
	<path fill="#1428a0" d="M16.601,18.674c-4.346,0.432-7.642,3.108-7.358,5.976c0.283,2.87,4.032,4.844,8.379,4.415
		c4.349-0.433,7.642-3.111,7.359-5.98C24.7,20.217,20.948,18.241,16.601,18.674z M16.455,26.767c-1.75,0.353-3.409-0.546-3.7-2.004
		c-0.295-1.46,0.888-2.93,2.639-3.279c1.751-0.353,3.408,0.545,3.7,2.004C19.387,24.945,18.205,26.414,16.455,26.767z"/>
</g>
</svg>
