<?xml version="1.0" encoding="utf-8"?>
<!-- Generator: Adobe Illustrator 16.0.0, SVG Export Plug-In . SVG Version: 6.00 Build 0)  -->
<!DOCTYPE svg PUBLIC "-//W3C//DTD SVG 1.1//EN" "http://www.w3.org/Graphics/SVG/1.1/DTD/svg11.dtd">
<svg version="1.1" id="레이어_1" xmlns="http://www.w3.org/2000/svg" xmlns:xlink="http://www.w3.org/1999/xlink" x="0px"
	 y="0px" width="40px" height="40px" viewBox="0 0 40 40" enable-background="new 0 0 40 40" xml:space="preserve">
<g>
	<path fill-rule="evenodd" clip-rule="evenodd" fill="#363636" d="M22.699,19.998c-0.467,0-0.939,0.471-0.939,0.939
		c0,0.475,0.473,0.939,0.939,0.939c0.709,0,1.174-0.465,1.174-0.939C23.873,20.469,23.408,19.998,22.699,19.998z"/>
	<path fill-rule="evenodd" clip-rule="evenodd" fill="#363636" d="M27.861,19.998c-0.463,0-0.932,0.471-0.932,0.939
		c0,0.475,0.469,0.939,0.932,0.939c0.705,0,1.176-0.465,1.176-0.939C29.037,20.469,28.566,19.998,27.861,19.998z"/>
	<path fill-rule="evenodd" clip-rule="evenodd" fill="#363636" d="M19.646,15.535c0.706,0,1.174-0.471,1.174-1.175
		c0-0.706-0.468-1.171-1.174-1.171c-0.704,0-1.41,0.465-1.41,1.171C18.236,15.064,18.942,15.535,19.646,15.535z"/>
	<path fill-rule="evenodd" clip-rule="evenodd" fill="#363636" d="M20,0C8.954,0,0,8.954,0,20c0,11.047,8.954,20,20,20
		c11.047,0,20-8.953,20-20C40,8.954,31.047,0,20,0z M16.126,25.168c-1.172,0-2.114-0.238-3.289-0.471l-3.28,1.645l0.938-2.824
		c-2.351-1.641-3.757-3.759-3.757-6.337c0-4.466,4.228-7.983,9.388-7.983c4.616,0,8.659,2.811,9.472,6.593
		c-0.299-0.034-0.6-0.056-0.904-0.056c-4.459,0-7.98,3.328-7.98,7.43c0,0.682,0.105,1.34,0.29,1.967
		C16.713,25.154,16.42,25.168,16.126,25.168z M29.973,28.457l0.705,2.346l-2.574-1.41c-0.938,0.234-1.881,0.471-2.816,0.471
		c-4.467,0-7.984-3.053-7.984-6.813c0-3.753,3.518-6.813,7.984-6.813c4.219,0,7.975,3.06,7.975,6.813
		C33.262,25.168,31.857,27.043,29.973,28.457z"/>
	<path fill-rule="evenodd" clip-rule="evenodd" fill="#363636" d="M13.076,13.189c-0.703,0-1.414,0.465-1.414,1.171
		c0,0.704,0.711,1.175,1.414,1.175c0.704,0,1.172-0.471,1.172-1.175C14.248,13.654,13.78,13.189,13.076,13.189z"/>
</g>
</svg>
